<?xml version="1.0"?>
<svg xmlns="http://www.w3.org/2000/svg" id="outline" viewBox="0 0 512 512" width="512" height="512"><path d="M224,328v80h-8a8,8,0,0,0-8,8v32a8,8,0,0,0,8,8H424a8,8,0,0,0,8-8V416a8,8,0,0,0-8-8h-8V328a32.036,32.036,0,0,0,32-32v-8c0-.089-.01-.176-.013-.264s-.008-.189-.015-.284a8.081,8.081,0,0,0-.121-.979c0-.014,0-.028-.007-.041a7.834,7.834,0,0,0-.283-1.028c-.022-.063-.046-.125-.069-.188a7.945,7.945,0,0,0-.4-.919c-.011-.02-.019-.04-.029-.06a8,8,0,0,0-.563-.894c-.045-.063-.092-.124-.139-.186a8.2,8.2,0,0,0-.7-.818l-32-32A8,8,0,0,0,408,248H232a8,8,0,0,0-5.657,2.343l-32,32a8.2,8.2,0,0,0-.7.818c-.047.062-.094.123-.139.186a8,8,0,0,0-.563.894c-.01.02-.018.04-.029.06a7.945,7.945,0,0,0-.4.919c-.023.063-.047.125-.069.188a7.834,7.834,0,0,0-.283,1.028c0,.013,0,.027-.007.041a8.081,8.081,0,0,0-.121.979c-.007.1-.012.189-.015.284s-.013.175-.013.264v8A32.036,32.036,0,0,0,224,328Zm-16-32h32a16,16,0,0,1-32,0Zm176,0a16,16,0,0,1-32,0Zm-33.754-16-4-16H364l12,16Zm-16.492,0H306.246l4-16h19.508ZM336,296a16,16,0,0,1-32,0Zm-46.246-16H264l12-16h17.754ZM288,296a16,16,0,0,1-32,0ZM416,440H224V424H416ZM288,376H272V360h16Zm-16,16h16v16H272Zm96,16H336V376h32Zm32,0H384V368a8,8,0,0,0-8-8H328a8,8,0,0,0-8,8v40H304V352a8,8,0,0,0-8-8H264a8,8,0,0,0-8,8v56H240V323.7a32.2,32.2,0,0,0,8-6.563,31.934,31.934,0,0,0,48,0,31.934,31.934,0,0,0,48,0,31.934,31.934,0,0,0,48,0,32.2,32.2,0,0,0,8,6.563Zm16-96a16.019,16.019,0,0,1-16-16h32A16.019,16.019,0,0,1,416,312Zm4.687-32H396l-12-16h20.687ZM235.313,264H256l-12,16H219.313Z"/><path d="M494.554,195.412l-56-80A8,8,0,0,0,432,112H416V24a8,8,0,0,0-8-8H104a8,8,0,0,0-8,8v88H80a8,8,0,0,0-6.554,3.412l-56,80,0,0A7.957,7.957,0,0,0,16,200v32a8,8,0,0,0,8,8h8V488a8,8,0,0,0,8,8H472a8,8,0,0,0,8-8V240h8a8,8,0,0,0,8-8V200a7.957,7.957,0,0,0-1.45-4.585ZM472.635,192H428.944l-32-64h30.891ZM164.184,128l-25.6,64h-37.64l32-64Zm17.232,0h24.825l-12.8,64H155.816Zm41.142,0H248v64H209.759ZM264,128h25.442l12.8,64H264Zm54.558,64-12.8-64h24.825l25.6,64Zm54.858,0-25.6-64h31.24l32,64ZM112,32H400v80H112ZM84.165,128h30.891l-32,64H39.365ZM464,480H48V240H464Zm16-256H32V208H480Z"/><path d="M88,416h64a8,8,0,0,0,8-8V328a8,8,0,0,0-8-8H88a8,8,0,0,0-8,8v80A8,8,0,0,0,88,416Zm8-16V368h48v32Zm48-64v16H96V336Z"/></svg>
